<?xml version="1.0" encoding="UTF-8" standalone="no"?>
<svg id="svg2" xmlns:rdf="http://www.w3.org/1999/02/22-rdf-syntax-ns#" xmlns="http://www.w3.org/2000/svg" viewBox="0 0 780 340" version="1.0" xmlns:cc="http://creativecommons.org/ns#" xmlns:xlink="http://www.w3.org/1999/xlink" xmlns:dc="http://purl.org/dc/elements/1.1/">
 <defs id="defs4">
  <linearGradient id="linearGradient3112" y2="829.26" gradientUnits="userSpaceOnUse" x2="240.54" gradientTransform="matrix(0.83330563,0,0,0.75655112,75.011252,-342.84799)" y1="513.19" x1="240.54">
   <stop id="stop2826" stop-color="#F00" offset="0"/>
   <stop id="stop2828" stop-color="#800000" offset="1"/>
  </linearGradient>
  <linearGradient id="linearGradient3114" y2="832.69" gradientUnits="userSpaceOnUse" x2="521.85" gradientTransform="matrix(0.83339604,0,0,0.73966367,74.960618,-332.78847)" y1="509.11" x1="521.85">
   <stop id="stop2834" stop-color="#dadada" offset="0"/>
   <stop id="stop2836" stop-color="#919fb3" offset="1"/>
  </linearGradient>
  <linearGradient id="linearGradient3116" y2="511.1" gradientUnits="userSpaceOnUse" x2="302.71" gradientTransform="matrix(0.83330563,0,0,0.75655112,75.011252,-342.84799)" y1="691.55" x1="302.71">
   <stop id="stop3617" stop-color="#FFF" offset="0"/>
   <stop id="stop3619" stop-color="#FFF" stop-opacity="0.57407409" offset="1"/>
  </linearGradient>
 </defs>
 <metadata id="metadata7">
  <rdf:RDF>
   <cc:Work rdf:about="">
    <dc:format>image/svg+xml</dc:format>
    <dc:type rdf:resource="http://purl.org/dc/dcmitype/StillImage"/>
    <dc:title/>
   </cc:Work>
  </rdf:RDF>
 </metadata>
 <g id="layer3">
  <g id="g3087" transform="matrix(0.97317875,-0.23005025,0.23005025,0.97317875,-27.171901,100.31728)">
   <path id="rect2817" stroke-linejoin="miter" style="enable-background:accumulate;" d="m201.14,43.862,368.61,0c73.168,0,132.07,53.478,132.07,119.91,0,66.428-58.904,119.91-132.07,119.91h-368.61c-73.168,0-132.07-53.478-132.07-119.91,0-66.428,58.904-119.91,132.07-119.91z" fill-rule="evenodd" stroke-dashoffset="0" stroke="#000" stroke-linecap="butt" stroke-miterlimit="4" stroke-width="3.17600584" fill="url(#linearGradient3112)"/>
   <path id="rect2819" stroke-linejoin="miter" style="enable-background:accumulate;stroke-dasharray:none;" d="m378.2,42.805,0,239.43,192.16,0c74.728,0,134.87-53.402,134.87-119.73,0-66.325-60.141-119.7-134.87-119.7h-192.16z" fill-rule="evenodd" stroke-dashoffset="0" stroke="#000" stroke-linecap="butt" stroke-miterlimit="4" stroke-width="3.14052939" fill="url(#linearGradient3114)"/>
   <path id="rect2840" opacity="0.33177568" style="enable-background:accumulate;" d="m201.14,43.862,368.61,0c73.168,0,132.07,53.478,132.07,119.91,0,66.428-2.2565-44.234-109.14-30.459-79.93,10.302-151.91-2.35-215.28-9.91-1.8908-0.22556,0.30519,10.865-1.5778,10.643-58.512-6.9181-113.33-19.721-170.44-6.9016-97.031,21.779-136.32,103.06-136.32,36.627,0-66.428,58.904-119.91,132.07-119.91z" fill-rule="evenodd" fill="url(#linearGradient3116)"/>
   <flowRoot id="flowRoot3070" style="writing-mode:lr-tb;text-anchor:start;text-align:start;" line-height="125%" font-weight="normal" xml:space="preserve" font-size="110px" transform="translate(1.3754956,-23.383429)" font-stretch="normal" font-variant="normal" font-style="normal" font-family="Bitstream Vera Sans" fill="#000000"><flowRegion id="flowRegion3072"><rect id="rect3074" style="text-align:start;" height="148.55" width="547.45" y="113.04" x="122.42" fill="#000"/></flowRegion><flowPara id="flowPara3076">TamiFlex</flowPara></flowRoot>
   <flowRoot id="flowRoot3030" style="writing-mode:lr-tb;text-anchor:start;text-align:start;" font-weight="normal" xml:space="preserve" transform="translate(-1.3754954,-21.256942)" line-height="125%" font-stretch="normal" font-size="110px" font-variant="normal" font-style="normal" font-family="Bitstream Vera Sans" fill="#ffffff"><flowRegion id="flowRegion3032"><rect id="rect3034" style="text-align:start;" height="148.55" width="547.45" y="113.04" x="122.42" fill="#FFF"/></flowRegion><flowPara id="flowPara3036">TamiFlex</flowPara></flowRoot>
  </g>
 </g>
 <g id="layer2" display="none">
  <path id="path2815" stroke-linejoin="miter" style="enable-background:accumulate;marker-end:none;marker-start:none;stroke-dasharray:none;marker-mid:none;" d="M206.2,204.45c0,67.03-87.68,121.43-195.71,121.43-108.04,0-195.72-54.4-195.72-121.43s87.683-121.43,195.72-121.43c108.03,0,195.71,54.399,195.71,121.43z" fill-rule="evenodd" stroke-dashoffset="0" stroke="#000" stroke-linecap="butt" stroke-miterlimit="4" stroke-width="2" fill="#808080"/>
  <path id="path2383" stroke-linejoin="miter" style="enable-background:accumulate;marker-end:none;marker-start:none;stroke-dasharray:none;marker-mid:none;" d="M736.2,204.45c0,67.03-87.68,121.43-195.71,121.43-108.04,0-195.72-54.4-195.72-121.43s87.68-121.43,195.72-121.43c108.03,0,195.71,54.399,195.71,121.43z" fill-rule="evenodd" stroke-dashoffset="0" stroke="#000" stroke-linecap="butt" stroke-miterlimit="4" stroke-width="2" fill="#808080"/>
  <path id="path2698" stroke-linejoin="miter" style="marker-end:none;marker-start:none;stroke-dasharray:none;marker-mid:none;" d="M540.5,53.031c-108.03,0-195.72,54.379-195.72,121.41v30c0-67.03,87.69-121.41,195.72-121.41v-30z" fill-rule="evenodd" stroke-dashoffset="0" stroke="#000" stroke-linecap="butt" stroke-miterlimit="4" stroke-width="2" fill="#808080"/>
  <path id="path2700" stroke-linejoin="miter" style="marker-end:none;marker-start:none;stroke-dasharray:none;marker-mid:none;" d="M344.78,174.44v30-30z" fill-rule="evenodd" stroke-dashoffset="0" stroke="#000" stroke-linecap="butt" stroke-miterlimit="4" stroke-width="2" fill="#808080"/>
  <path id="path2706" stroke-linejoin="miter" style="marker-end:none;marker-start:none;stroke-dasharray:none;marker-mid:none;" d="M649.12,73.469c-31.09-12.907-68.43-20.438-108.62-20.438v30c40.19,0,77.53,7.531,108.62,20.439v-30.001z" fill-rule="evenodd" stroke-dashoffset="0" stroke="#000" stroke-linecap="butt" stroke-miterlimit="4" stroke-width="2" fill="#808080"/>
  <path id="path2708" stroke-linejoin="miter" style="marker-end:none;marker-start:none;stroke-dasharray:none;marker-mid:none;" d="M710.66,114.47l-278.82,160.97v30l278.82-160.97v-30z" fill-rule="evenodd" stroke-dashoffset="0" stroke="#000" stroke-linecap="butt" stroke-miterlimit="4" stroke-width="2" fill="#808080"/>
  <path id="path2714" stroke-linejoin="miter" style="marker-end:none;marker-start:none;stroke-dasharray:none;marker-mid:none;" d="M736.19,174.44c0-21.82-9.28-42.27-25.53-59.97v30c16.25,17.7,25.53,38.15,25.53,59.97v-30z" fill-rule="evenodd" stroke-dashoffset="0" stroke="#000" stroke-linecap="butt" stroke-miterlimit="4" stroke-width="2" fill="#808080"/>
  <path id="path2437" stroke-linejoin="miter" style="enable-background:accumulate;marker-end:none;marker-start:none;stroke-dasharray:none;marker-mid:none;" d="M540.5,53.031c-108.03,0-195.72,54.379-195.72,121.41,0,21.82,9.3,42.3,25.56,60l278.78-160.97c-31.09-12.907-68.43-20.438-108.62-20.438zm170.16,61.439l-278.82,160.97c31.09,12.9,68.47,20.44,108.66,20.44,108.03,0,195.69-54.41,195.69-121.44,0-21.82-9.28-42.27-25.53-59.97z" fill-rule="evenodd" stroke-dashoffset="0" stroke="#000" stroke-linecap="butt" stroke-miterlimit="4" stroke-width="2" fill="#808080"/>
  <path id="path2704" stroke-linejoin="miter" style="marker-end:none;marker-start:none;stroke-dasharray:none;marker-mid:none;" d="M370.34,234.44l278.78-160.97v30.001l-278.78,160.97v-30z" fill-rule="evenodd" stroke-dashoffset="0" stroke="#000" stroke-linecap="butt" stroke-miterlimit="4" stroke-width="2" fill="#808080"/>
  <path id="path2702" stroke-linejoin="miter" style="marker-end:none;marker-start:none;stroke-dasharray:none;marker-mid:none;" d="M344.78,174.44v30,40c0,67.03,87.69,121.44,195.72,121.44s195.69-54.41,195.69-121.44v-40-30c-11.2,96.81-114.84,113.95-195.69,121.44-40.19,0-77.57-7.54-108.66-20.44v30c-25.28-10.5-46.39-24.55-61.5-41v-30c-12.77-13.91-21.26-29.52-24.31-46.16-0.28-4.45-0.89-8.81-1.25-13.84z" fill-rule="evenodd" stroke-dashoffset="0" stroke="#000" stroke-linecap="butt" stroke-miterlimit="4" stroke-width="2" fill="#782121"/>
  <path id="path2809" stroke-linejoin="miter" style="enable-background:accumulate;marker-end:none;marker-start:none;stroke-dasharray:none;marker-mid:none;" d="M10.5,53.031c-108.03,0-195.72,54.379-195.72,121.41,0,21.82,9.3,42.3,25.56,60l278.78-160.97c-31.085-12.907-68.429-20.438-108.62-20.438zm170.16,61.439l-278.82,160.97c31.09,12.9,68.465,20.44,108.66,20.44,108.03,0,195.69-54.41,195.69-121.44,0-21.82-9.28-42.27-25.53-59.97z" fill-rule="evenodd" stroke-dashoffset="0" stroke="#000" stroke-linecap="butt" stroke-miterlimit="4" stroke-width="2" fill="#808080"/>
  <path id="path2811" stroke-linejoin="miter" style="marker-end:none;marker-start:none;stroke-dasharray:none;marker-mid:none;" d="M-185.22,174.44v30,40c0,67.03,87.686,121.44,195.72,121.44s195.69-54.41,195.69-121.44v-40-30c-11.2,96.81-114.84,113.95-195.69,121.44-40.191,0-77.566-7.54-108.66-20.44v30c-25.284-10.5-46.394-24.55-61.504-41v-30c-12.77-13.91-21.26-29.52-24.31-46.16-0.28-4.45-0.89-8.81-1.25-13.84z" fill-rule="evenodd" stroke-dashoffset="0" stroke="#000" stroke-linecap="butt" stroke-miterlimit="4" stroke-width="2" fill="#782121"/>
  <path id="path2813" stroke-linejoin="miter" style="marker-end:none;marker-start:none;stroke-dasharray:none;marker-mid:none;" d="M-159.66,234.44l278.78-160.97v30.001l-278.78,160.97v-30z" fill-rule="evenodd" stroke-dashoffset="0" stroke="#000" stroke-linecap="butt" stroke-miterlimit="4" stroke-width="2" fill="#808080"/>
  <path id="path3727" style="enable-background:accumulate;" fill-rule="evenodd" fill="#000" d="M-158.67-10.975h22v-71.323h-22v71.323zm44,0h0.28,21.72v-71.323h-21.72-0.28v71.323zm44,0h0.594,21.406v-71.323h-21.406-0.594v71.323zm44,0h0.875,21.125v-71.323h-21.125-0.875v71.323zm44,0h1.187,20.813v-71.323h-20.813-1.187v71.323zm44,0h1.469,20.531v-71.323h-20.531-1.469v71.323zm44,0h1.78,20.22v-71.323h-20.22-1.78v71.323zm44,0h2.06,19.94v-71.323h-19.94-2.06v71.323zm44,0h2.37,19.63v-71.323h-19.63-2.37v71.323zm44,0h2.66,19.34v-71.323h-19.34-2.66v71.323zm44,0h2.97,19.03v-71.323h-19.03-2.97v71.323zm44,0h3.28,18.72v-71.323h-18.72-3.28v71.323zm44,0h3.56,18.44v-71.323h-18.44-3.56v71.323zm44,0h3.87,18.13v-71.323h-18.13-3.87v71.323zm44,0h4.16,17.84v-71.323h-17.84-4.16v71.323zm44,0h4.47,17.53v-71.323h-17.53-4.47v71.323zm44,0h4.75v-71.323h-4.75v71.323z"/>
  <path id="path2425" stroke-linejoin="miter" style="stroke-dasharray:28, 28;" d="M-156.25-114.01h22.35,22.35,22.357,22.353,22.353,22.353,22.353,22.353,22.353,22.353,22.353,22.349,22.36,22.35,22.35,22.36,22.35,22.35,22.36,22.35,22.35,22.36,22.35,22.35,22.35,22.36,22.35,22.35,22.36,22.35,22.35,22.36" stroke-dashoffset="0" stroke="#000" stroke-linecap="butt" stroke-miterlimit="4" stroke-width="7" fill="none"/>
 </g>
</svg>